#!OML:ASF H:\GeneralSubjects\Female5\Project 1\Capture day 1\Session 1\Female5.ASF
:FULLY-SPECIFIED
:DEGREES
325
root -5.87029 16.3418 5.30846 -25.8517 84.2628 -36.9486
lowerback 5.06008 0.500335 2.58309
upperback -10.4247 1.5998 2.06001
thorax -14.2785 0.773181 0.521583
lowerneck -13.089 -2.19659 -0.932893
upperneck 39.4839 0.289546 -3.98707
head 16.3676 0.0376899 -1.36169
rclavicle 4.72114e-015 1.98785e-015
rhumerus -13.1839 27.9438 -63.7181
rradius 58.4167
rwrist -14.9348
rhand -26.9308 -17.9812
rfingers 7.12502
rthumb -0.353275 -47.9607
lclavicle 4.72114e-015 1.98785e-015
lhumerus -10.0216 -10.5895 70.8779
lradius 55.0374
lwrist -1.77324
lhand -30.5158 36.6488
lfingers 7.12502
lthumb -3.81559 66.5944
rfemur 0.666249 31.9796 33.6599
rtibia -5.48114
rfoot -29.1044 -30.8448
rtoes 4.72556
lfemur -2.41814 -27.8077 -27.6842
ltibia -1.05794
lfoot -34.4901 5.90413
ltoes -33.381
326
root -5.8633 16.347 5.28978 -27.5046 84.3518 -38.7352
lowerback 5.29377 0.517681 2.64395
upperback -10.4399 1.65037 2.11703
thorax -14.4477 0.793289 0.539245
lowerneck -12.9494 -2.19861 -0.794958
upperneck 39.491 0.287471 -4.06751
head 16.3349 0.0527327 -1.41952
rclavicle 4.27387e-015 1.15295e-014
rhumerus -11.6891 26.3403 -63.0597
rradius 58.721
rwrist -15.7206
rhand -27.0478 -17.5454
rfingers 7.12502
rthumb -0.466262 -47.5246
lclavicle 4.27387e-015 1.15295e-014
lhumerus -9.29556 -10.6336 70.8281
lradius 57.0194
lwrist -1.41516
lhand -31.2028 35.6497
lfingers 7.12502
lthumb -4.47892 65.5824
rfemur -0.689846 28.5543 33.1228
rtibia -4.35785
rfoot -25.9801 -28.9947
rtoes 0.306462
lfemur -2.89731 -27.1249 -27.4543
ltibia -0.713471
lfoot -33.6348 5.77109
ltoes -33.4445
327
root -5.86075 16.3541 5.26863 -29.1071 84.396 -40.5465
lowerback 5.56333 0.545036 2.73456
upperback -10.4551 1.72086 2.17647
thorax -14.6401 0.819272 0.538895
lowerneck -12.8396 -2.20807 -0.644074
upperneck 39.4361 0.265102 -4.16328
head 16.276 0.0557941 -1.4894
rclavicle -1.09332e-015 -7.55382e-015
rhumerus -10.5053 24.7483 -62.6691
rradius 58.9063
rwrist -16.3748
rhand -27.3343 -17.0666
rfingers 7.12502
rthumb -0.742966 -47.0451
lclavicle -1.09332e-015 -7.55382e-015
lhumerus -8.87468 -10.6594 70.9378
lradius 59.0086
lwrist -1.28334
lhand -31.7852 34.7526
lfingers 7.12502
lthumb -5.04136 64.6726
rfemur -2.42121 24.8749 32.5913
rtibia -2.67365
rfoot -22.9476 -26.905
rtoes -5.54055
lfemur -3.42283 -26.6297 -27.1787
ltibia -0.44477
lfoot -32.9798 5.59802
ltoes -33.2706
328
root -5.86272 16.3627 5.24522 -30.2893 84.387 -42.0139
lowerback 5.86957 0.587798 2.83877
upperback -10.4656 1.81554 2.23249
thorax -14.8501 0.854146 0.52198
lowerneck -12.7749 -2.2181 -0.509335
upperneck 39.3247 0.227451 -4.23824
head 16.198 0.0490577 -1.54955
rclavicle -5.2181e-015 4.09496e-014
rhumerus -9.6093 23.2687 -62.5069
rradius 58.9446
rwrist -16.8523
rhand -27.63 -16.6354
rfingers 7.12502
rthumb -1.02856 -46.6127
lclavicle -5.2181e-015 4.09496e-014
lhumerus -8.77264 -10.6821 71.1799
lradius 60.9857
lwrist -1.37686
lhand -32.3634 34.1766
lfingers 7.12502
lthumb -5.59962 64.0826
rfemur -4.50679 21.2602 32.1088
rtibia -0.382836
rfoot -20.7093 -24.6386
rtoes -11.4073
lfemur -3.97687 -26.3476 -26.8852
ltibia -0.267423
lfoot -32.5784 5.38363
ltoes -32.8566
329
root -5.86851 16.3719 5.22028 -30.623 84.3324 -42.704
lowerback 6.21639 0.644725 2.92062
upperback -10.4652 1.92689 2.28203
thorax -15.0739 0.897762 0.506097
lowerneck -12.7588 -2.21584 -0.37441
upperneck 39.1556 0.194467 -4.30608
head 16.1022 0.0412304 -1.60552
rclavicle 5.36719e-015 -2.38542e-014
rhumerus -8.96143 22.0004 -62.5333
rradius 58.7979
rwrist -17.1282
rhand -28.0293 -16.2116
rfingers 7.12502
rthumb -1.41419 -46.1867
lclavicle 5.36719e-015 -2.38542e-014
lhumerus -9.00409 -10.7091 71.5136
lradius 62.9214
lwrist -1.64327
lhand -32.9568 33.9258
lfingers 7.12502
lthumb -6.17254 63.8159
rfemur -6.87108 18.0972 31.6827
rtibia 2.39725
rfoot -19.5038 -22.5816
rtoes -16.6406
lfemur -4.54621 -26.2601 -26.6144
ltibia -0.187319
lfoot -32.4228 5.19243
ltoes -32.3238
330
root -5.87701 16.3811 5.19527 -29.7959 84.2407 -42.3003
lowerback 6.60172 0.717281 2.9437
upperback -10.453 2.0498 2.31609
thorax -15.3091 0.950974 0.502106
lowerneck -12.814 -2.2 -0.265749
upperneck 38.9717 0.174355 -4.34761
head 16.0176 0.0352951 -1.64402
rclavicle 5.06901e-015 -4.37326e-015
rhumerus -8.55787 21.0026 -62.7289
rradius 58.456
rwrist -17.219
rhand -28.381 -15.966
rfingers 7.12502
rthumb -1.75389 -45.9385
lclavicle 5.06901e-015 -4.37326e-015
lhumerus -9.55758 -10.7602 71.9049
lradius 64.7284
lwrist -1.9521
lhand -33.6399 33.8527
lfingers 7.12502
lthumb -6.83192 63.7225
rfemur -9.39433 15.7054 31.281
rtibia 5.35564
rfoot -19.2032 -21.0638
rtoes -21.1743
lfemur -5.12644 -26.3246 -26.3925
ltibia -0.199265
lfoot -32.4809 5.11075
ltoes -31.8721
